<?xml version="1.0" encoding="UTF-8" standalone="no"?><svg xmlns="http://www.w3.org/2000/svg" xmlns:xlink="http://www.w3.org/1999/xlink" contentScriptType="application/ecmascript" contentStyleType="text/css" height="853px" preserveAspectRatio="none" style="width:488px;height:853px;" version="1.1" viewBox="0 0 488 853" width="488px" zoomAndPan="magnify"><defs><filter height="300%" id="f1d2gi8ql0ujj1" width="300%" x="-1" y="-1"><feGaussianBlur result="blurOut" stdDeviation="2.0"/><feColorMatrix in="blurOut" result="blurOut2" type="matrix" values="0 0 0 0 0 0 0 0 0 0 0 0 0 0 0 0 0 0 .4 0"/><feOffset dx="4.0" dy="4.0" in="blurOut2" result="blurOut3"/><feBlend in="SourceGraphic" in2="blurOut3" mode="normal"/></filter></defs><g><text fill="#000000" font-family="sans-serif" font-size="18" lengthAdjust="spacingAndGlyphs" textLength="226" x="134" y="18.6855">State machine for an invoice</text><ellipse cx="352.5" cy="40.6406" fill="#000000" filter="url(#f1d2gi8ql0ujj1)" rx="10" ry="10" style="stroke: none; stroke-width: 1.0;"/><rect fill="#F8F8F8" filter="url(#f1d2gi8ql0ujj1)" height="50" rx="12.5" ry="12.5" style="stroke: #383838; stroke-width: 1.5;" width="71" x="317" y="111.6406"/><line style="stroke: #383838; stroke-width: 1.5;" x1="317" x2="388" y1="139.25" y2="139.25"/><text fill="#000000" font-family="sans-serif" font-size="14" lengthAdjust="spacingAndGlyphs" textLength="51" x="327" y="131.1738">Created</text><rect fill="#F8F8F8" filter="url(#f1d2gi8ql0ujj1)" height="50" rx="12.5" ry="12.5" style="stroke: #383838; stroke-width: 1.5;" width="141" x="156" y="239.6406"/><line style="stroke: #383838; stroke-width: 1.5;" x1="156" x2="297" y1="267.25" y2="267.25"/><text fill="#000000" font-family="sans-serif" font-size="14" lengthAdjust="spacingAndGlyphs" textLength="121" x="166" y="259.1738">ExternalProcessing</text><rect fill="#F8F8F8" filter="url(#f1d2gi8ql0ujj1)" height="52.7031" rx="12.5" ry="12.5" style="stroke: #383838; stroke-width: 1.5;" width="81" x="395" y="319.6406"/><line style="stroke: #383838; stroke-width: 1.5;" x1="395" x2="476" y1="347.25" y2="347.25"/><text fill="#000000" font-family="sans-serif" font-size="14" lengthAdjust="spacingAndGlyphs" textLength="56" x="407.5" y="339.1738">Rejected</text><text fill="#000000" font-family="sans-serif" font-size="12" lengthAdjust="spacingAndGlyphs" textLength="61" x="400" y="364.707">- Problems</text><rect fill="#F8F8F8" filter="url(#f1d2gi8ql0ujj1)" height="50" rx="12.5" ry="12.5" style="stroke: #383838; stroke-width: 1.5;" width="76" x="310.5" y="542.6406"/><line style="stroke: #383838; stroke-width: 1.5;" x1="310.5" x2="386.5" y1="570.25" y2="570.25"/><text fill="#000000" font-family="sans-serif" font-size="14" lengthAdjust="spacingAndGlyphs" textLength="56" x="320.5" y="562.1738">Revoked</text><rect fill="#F8F8F8" filter="url(#f1d2gi8ql0ujj1)" height="52.7031" rx="12.5" ry="12.5" style="stroke: #383838; stroke-width: 1.5;" width="83" x="151" y="402.6406"/><line style="stroke: #383838; stroke-width: 1.5;" x1="151" x2="234" y1="430.25" y2="430.25"/><text fill="#000000" font-family="sans-serif" font-size="14" lengthAdjust="spacingAndGlyphs" textLength="52" x="166.5" y="422.1738">Pending</text><text fill="#000000" font-family="sans-serif" font-size="12" lengthAdjust="spacingAndGlyphs" textLength="63" x="156" y="447.707">- ExternalID</text><rect fill="#F8F8F8" filter="url(#f1d2gi8ql0ujj1)" height="50" rx="12.5" ry="12.5" style="stroke: #383838; stroke-width: 1.5;" width="67" x="231" y="631.6406"/><line style="stroke: #383838; stroke-width: 1.5;" x1="231" x2="298" y1="659.25" y2="659.25"/><text fill="#000000" font-family="sans-serif" font-size="14" lengthAdjust="spacingAndGlyphs" textLength="47" x="241" y="651.1738">Expired</text><rect fill="#F8F8F8" filter="url(#f1d2gi8ql0ujj1)" height="50" rx="12.5" ry="12.5" style="stroke: #383838; stroke-width: 1.5;" width="69" x="6" y="711.6406"/><line style="stroke: #383838; stroke-width: 1.5;" x1="6" x2="75" y1="739.25" y2="739.25"/><text fill="#000000" font-family="sans-serif" font-size="14" lengthAdjust="spacingAndGlyphs" textLength="49" x="16" y="731.1738">Deleted</text><rect fill="#F8F8F8" filter="url(#f1d2gi8ql0ujj1)" height="67.7969" rx="12.5" ry="12.5" style="stroke: #383838; stroke-width: 1.5;" width="81" x="79" y="533.6406"/><line style="stroke: #383838; stroke-width: 1.5;" x1="79" x2="160" y1="561.25" y2="561.25"/><text fill="#000000" font-family="sans-serif" font-size="14" lengthAdjust="spacingAndGlyphs" textLength="61" x="89" y="553.1738">Approved</text><text fill="#000000" font-family="sans-serif" font-size="12" lengthAdjust="spacingAndGlyphs" textLength="49" x="84" y="578.707">- Amount</text><text fill="#000000" font-family="sans-serif" font-size="12" lengthAdjust="spacingAndGlyphs" textLength="30" x="84" y="593.8008">- Due</text><ellipse cx="305.5" cy="832.6406" fill="none" filter="url(#f1d2gi8ql0ujj1)" rx="10" ry="10" style="stroke: #000000; stroke-width: 1.0;"/><ellipse cx="306" cy="833.1406" fill="#000000" rx="6" ry="6" style="stroke: none; stroke-width: 1.0;"/><path d="M110.5,715.1406 L110.5,757.8438 A0,0 0 0 0 110.5,757.8438 L204.5,757.8438 A0,0 0 0 0 204.5,757.8438 L204.5,725.1406 L194.5,715.1406 L156.792,715.1406 L127.099,602.0346 L148.792,715.1406 L110.5,715.1406 A0,0 0 0 0 110.5,715.1406 " fill="#ECECEC" filter="url(#f1d2gi8ql0ujj1)" style="stroke: #383838; stroke-width: 1.0;"/><path d="M194.5,715.1406 L194.5,725.1406 L204.5,725.1406 L194.5,715.1406 " fill="#ECECEC" style="stroke: #383838; stroke-width: 1.0;"/><text fill="#000000" font-family="sans-serif" font-size="13" lengthAdjust="spacingAndGlyphs" textLength="65" x="116.5" y="733.6357">Final state.</text><text fill="#000000" font-family="sans-serif" font-size="13" lengthAdjust="spacingAndGlyphs" textLength="73" x="116.5" y="749.9873">Not verifiable</text><!--link *start to Created--><path d="M352.5,50.6536 C352.5,63.3386 352.5,87.0496 352.5,106.2106 " fill="none" id="*start-Created" style="stroke: #383838; stroke-width: 1.0;"/><polygon fill="#383838" points="352.5,111.4806,356.5,102.4806,352.5,106.4806,348.5,102.4806,352.5,111.4806" style="stroke: #383838; stroke-width: 1.0;"/><!--link Created to ExternalProcessing--><path d="M328.206,161.9346 C307.114,183.0266 276.573,213.5676 254.468,235.6726 " fill="none" id="Created-ExternalProcessing" style="stroke: #383838; stroke-width: 1.0;"/><polygon fill="#383838" points="250.719,239.4216,259.9114,235.8861,254.2545,235.8861,254.2545,230.2292,250.719,239.4216" style="stroke: #383838; stroke-width: 1.0;"/><text fill="#000000" font-family="sans-serif" font-size="13" lengthAdjust="spacingAndGlyphs" textLength="14" x="298.5" y="206.1357">T1</text><!--link Created to Rejected--><path d="M364.765,161.8816 C369.277,171.1106 374.305,181.7786 378.5,191.6406 C396.401,233.7296 414.316,283.5456 425.156,314.7506 " fill="none" id="Created-Rejected" style="stroke: #383838; stroke-width: 1.0;"/><polygon fill="#383838" points="426.834,319.5956,427.6666,309.782,425.1968,314.8713,420.1076,312.4015,426.834,319.5956" style="stroke: #383838; stroke-width: 1.0;"/><text fill="#000000" font-family="sans-serif" font-size="13" lengthAdjust="spacingAndGlyphs" textLength="14" x="387.5" y="206.1357">T2</text><!--link Created to Revoked--><path d="M352.273,161.9346 C351.585,235.8216 349.516,457.6566 348.771,537.5586 " fill="none" id="Created-Revoked" style="stroke: #383838; stroke-width: 1.0;"/><polygon fill="#383838" points="348.724,542.6126,352.8087,533.6507,348.7711,537.6128,344.809,533.5753,348.724,542.6126" style="stroke: #383838; stroke-width: 1.0;"/><text fill="#000000" font-family="sans-serif" font-size="13" lengthAdjust="spacingAndGlyphs" textLength="14" x="352.5" y="351.6357">T3</text><!--link ExternalProcessing to Pending--><path d="M221.41,289.9686 C215.421,318.5926 205.468,366.1596 198.946,397.3336 " fill="none" id="ExternalProcessing-Pending" style="stroke: #383838; stroke-width: 1.0;"/><polygon fill="#383838" points="197.85,402.5726,203.6065,394.5812,198.8729,397.6784,195.7757,392.9447,197.85,402.5726" style="stroke: #383838; stroke-width: 1.0;"/><text fill="#000000" font-family="sans-serif" font-size="13" lengthAdjust="spacingAndGlyphs" textLength="14" x="216.5" y="351.6357">T4</text><!--link Pending to Expired--><path d="M200.759,456.0086 C214.275,498.3376 241.026,582.1216 255.193,626.4916 " fill="none" id="Pending-Expired" style="stroke: #383838; stroke-width: 1.0;"/><polygon fill="#383838" points="256.773,631.4416,257.8456,621.6513,255.252,626.6786,250.2247,624.085,256.773,631.4416" style="stroke: #383838; stroke-width: 1.0;"/><text fill="#000000" font-family="sans-serif" font-size="13" lengthAdjust="spacingAndGlyphs" textLength="14" x="216.5" y="500.1357">T5</text><!--link Pending to Deleted--><path d="M150.963,446.3486 C115.743,462.5816 67.5407,491.2766 45.5,533.6406 C16.6199,589.1506 25.5575,665.3726 33.6336,706.4946 " fill="none" id="Pending-Deleted" style="stroke: #383838; stroke-width: 1.0;"/><polygon fill="#383838" points="34.6621,711.5746,36.798,701.9602,33.6706,706.6739,28.9569,703.5465,34.6621,711.5746" style="stroke: #383838; stroke-width: 1.0;"/><text fill="#000000" font-family="sans-serif" font-size="13" lengthAdjust="spacingAndGlyphs" textLength="14" x="46.5" y="573.1357">T6</text><!--link Pending to Approved--><path d="M178.769,455.8156 C167.734,476.4496 152.076,505.7286 139.624,529.0106 " fill="none" id="Pending-Approved" style="stroke: #383838; stroke-width: 1.0;"/><polygon fill="#383838" points="137.179,533.5826,144.95,527.5319,139.5365,529.1733,137.8951,523.7598,137.179,533.5826" style="stroke: #383838; stroke-width: 1.0;"/><text fill="#000000" font-family="sans-serif" font-size="13" lengthAdjust="spacingAndGlyphs" textLength="14" x="164.5" y="500.1357">T7</text><!--link Approved to Pending--><path d="M115.126,533.5176 C114.567,518.1876 116.083,500.1916 123.5,485.6406 C128.937,474.9746 137.451,465.6616 146.667,457.8656 " fill="none" id="Approved-Pending" style="stroke: #383838; stroke-width: 1.0;"/><polygon fill="#383838" points="150.653,454.6176,141.149,457.2009,146.7765,457.7756,146.2018,463.4032,150.653,454.6176" style="stroke: #383838; stroke-width: 1.0;"/><text fill="#000000" font-family="sans-serif" font-size="13" lengthAdjust="spacingAndGlyphs" textLength="21" x="124.5" y="500.1357">T10</text><!--link Pending to Revoked--><path d="M234.344,455.7126 C247.667,464.5656 262.145,474.9616 274.5,485.6406 C293.098,501.7166 311.753,522.1706 325.679,538.5026 " fill="none" id="Pending-Revoked" style="stroke: #383838; stroke-width: 1.0;"/><polygon fill="#383838" points="329.115,542.5606,326.3528,533.107,325.8844,538.7445,320.247,538.276,329.115,542.5606" style="stroke: #383838; stroke-width: 1.0;"/><text fill="#000000" font-family="sans-serif" font-size="13" lengthAdjust="spacingAndGlyphs" textLength="14" x="293.5" y="500.1357">T8</text><!--link Approved to Approved--><path d="M160.276,554.3786 C178.852,553.0246 195,557.4456 195,567.6406 C195,576.8806 181.738,581.3766 165.425,581.1306 " fill="none" id="Approved-Approved" style="stroke: #383838; stroke-width: 1.0;"/><polygon fill="#383838" points="160.276,580.9026,169.0888,585.2997,165.271,581.1255,169.4453,577.3077,160.276,580.9026" style="stroke: #383838; stroke-width: 1.0;"/><text fill="#000000" font-family="sans-serif" font-size="13" lengthAdjust="spacingAndGlyphs" textLength="14" x="201" y="573.1357">T9</text><!--link Approved to Deleted--><path d="M103.703,602.0346 C89.171,632.7536 67.8468,677.8316 54.0672,706.9606 " fill="none" id="Approved-Deleted" style="stroke: #383838; stroke-width: 1.0;"/><polygon fill="#383838" points="51.9227,711.4936,59.3876,705.0691,54.0612,706.974,52.1562,701.6475,51.9227,711.4936" style="stroke: #383838; stroke-width: 1.0;"/><text fill="#000000" font-family="sans-serif" font-size="13" lengthAdjust="spacingAndGlyphs" textLength="21" x="90.5" y="662.1357">T11</text><!--link Expired to *end--><path d="M270.201,681.8346 C278.901,718.7556 295.215,787.9917 302.195,817.6138 " fill="none" id="Expired-*end" style="stroke: #383838; stroke-width: 1.0;"/><polygon fill="#383838" points="303.386,822.6671,305.2152,812.9896,302.2392,817.8004,297.4285,814.8244,303.386,822.6671" style="stroke: #383838; stroke-width: 1.0;"/><!--link Revoked to *end--><path d="M347.399,592.8616 C345.088,634.3336 338.379,721.3646 320.5,792.6406 C318.292,801.4449 314.659,810.9596 311.521,818.3869 " fill="none" id="Revoked-*end" style="stroke: #383838; stroke-width: 1.0;"/><polygon fill="#383838" points="309.452,823.161,316.7017,816.4945,311.4407,818.5735,309.3617,813.3126,309.452,823.161" style="stroke: #383838; stroke-width: 1.0;"/><!--link Deleted to *end--><path d="M75.2258,754.3355 C80.9496,756.8939 86.8562,759.4193 92.5,761.6406 C165.732,790.4635 256.149,817.4216 290.927,827.4821 " fill="none" id="Deleted-*end" style="stroke: #383838; stroke-width: 1.0;"/><polygon fill="#383838" points="296.02,828.9493,288.4792,822.614,291.2154,827.5651,286.2644,830.3013,296.02,828.9493" style="stroke: #383838; stroke-width: 1.0;"/><!--link Rejected to *end--><path d="M436.625,372.8046 C437.808,402.0486 439.5,451.2776 439.5,493.6406 C439.5,493.6406 439.5,493.6406 439.5,737.6406 C439.5,795.3651 355.131,820.6668 320.284,828.6552 " fill="none" id="Rejected-*end" style="stroke: #383838; stroke-width: 1.0;"/><polygon fill="#383838" points="315.137,829.7909,324.7879,831.7554,320.0193,828.7124,323.0623,823.9438,315.137,829.7909" style="stroke: #383838; stroke-width: 1.0;"/><!--
@startuml
skinparam monochrome true

Title State machine for an invoice

[*] - -> Created
Created - -> ExternalProcessing : T1
Created - -> Rejected : T2
Created - -> Revoked : T3

ExternalProcessing - -> Pending : T4

Pending - -> Expired : T5
Pending - -> Deleted : T6
Pending - -> Approved : T7
Pending - -> Revoked : T8
Approved - -> Approved : T9
Approved - -> Pending : T10
Approved - -> Deleted : T11
Expired - -> [*]
Revoked - -> [*]
Deleted - -> [*]
Rejected - -> [*]

Pending : - ExternalID
Approved : - Amount\n- Due
Rejected : - Problems

note bottom of Approved
    Final state.
    Not verifiable
end note

@enduml

PlantUML version 1.2018.12(Sun Oct 21 12:15:15 CEST 2018)
(GPL source distribution)
Java Runtime: Java(TM) SE Runtime Environment
JVM: Java HotSpot(TM) 64-Bit Server VM
Java Version: 1.8.0_191-b12
Operating System: Windows 10
OS Version: 10.0
Default Encoding: Cp1252
Language: en
Country: US
--></g></svg>